<svg xmlns="http://www.w3.org/2000/svg" style="display:none">
  <symbol id="i-arrow" viewBox="0 0 24 24" fill="none" stroke="currentColor" stroke-width="2"><path d="M5 12h14M13 6l6 6-6 6"/></symbol>
  <symbol id="i-check" viewBox="0 0 24 24" fill="none" stroke="currentColor" stroke-width="2.4"><path d="M4 12.5l5 5L20 6.5"/></symbol>
  <symbol id="i-plus" viewBox="0 0 24 24" fill="none" stroke="currentColor" stroke-width="2"><path d="M12 5v14M5 12h14"/></symbol>
  <symbol id="i-globe" viewBox="0 0 24 24" fill="none" stroke="currentColor" stroke-width="1.6"><circle cx="12" cy="12" r="9"/><path d="M3 12h18M12 3c2.7 2.6 4 5.6 4 9s-1.3 6.4-4 9c-2.7-2.6-4-5.6-4-9s1.3-6.4 4-9Z"/></symbol>
  <symbol id="i-truck" viewBox="0 0 24 24" fill="none" stroke="currentColor" stroke-width="1.6"><path d="M1 8h13v9H1zM14 11h4l3 3v3h-7z"/><circle cx="6" cy="18.5" r="1.8"/><circle cx="17" cy="18.5" r="1.8"/></symbol>
  <symbol id="i-box" viewBox="0 0 24 24" fill="none" stroke="currentColor" stroke-width="1.6"><path d="M12 2 3 7v10l9 5 9-5V7l-9-5Z"/><path d="M3 7l9 5 9-5M12 12v10"/></symbol>
  <symbol id="i-chart" viewBox="0 0 24 24" fill="none" stroke="currentColor" stroke-width="1.6"><path d="M4 20V10M10 20V4M16 20v-8M22 20H2"/></symbol>
  <symbol id="i-warehouse" viewBox="0 0 24 24" fill="none" stroke="currentColor" stroke-width="1.6"><path d="M3 21V9l9-6 9 6v12"/><path d="M7 21v-8h10v8M7 17h10"/></symbol>
  <symbol id="i-plane" viewBox="0 0 24 24" fill="none" stroke="currentColor" stroke-width="1.6"><path d="M22 2 11 13M22 2l-7 20-4-9-9-4 20-7Z"/></symbol>
  <symbol id="i-leaf" viewBox="0 0 24 24" fill="none" stroke="currentColor" stroke-width="1.6"><path d="M11 20A7 7 0 0 1 4 13c0-5 4-9 16-9 0 12-4 16-9 16Z"/><path d="M4 21c4-4 7-7 10-10"/></symbol>
  <symbol id="i-clock" viewBox="0 0 24 24" fill="none" stroke="currentColor" stroke-width="1.6"><circle cx="12" cy="12" r="9"/><path d="M12 7v5l3.5 2"/></symbol>
  <symbol id="i-users" viewBox="0 0 24 24" fill="none" stroke="currentColor" stroke-width="1.6"><circle cx="9" cy="8" r="3.5"/><path d="M2.5 20c.8-3.5 3.4-5.5 6.5-5.5s5.7 2 6.5 5.5M16 4.6a3.5 3.5 0 0 1 0 6.8M17.5 14.9c2 .6 3.5 2.2 4 5.1"/></symbol>
  <symbol id="i-shield" viewBox="0 0 24 24" fill="none" stroke="currentColor" stroke-width="1.6"><path d="M12 2 4 6v6c0 5 3.5 8.5 8 10 4.5-1.5 8-5 8-10V6l-8-4Z"/><path d="m8.5 12 2.5 2.5 5-5"/></symbol>
  <symbol id="i-search" viewBox="0 0 24 24" fill="none" stroke="currentColor" stroke-width="1.8"><circle cx="11" cy="11" r="7"/><path d="m20 20-4-4"/></symbol>
  <symbol id="i-bell" viewBox="0 0 24 24" fill="none" stroke="currentColor" stroke-width="1.6"><path d="M18 9a6 6 0 1 0-12 0c0 6-2.5 7-2.5 7h17S18 15 18 9ZM10 20a2.2 2.2 0 0 0 4 0"/></symbol>
  <symbol id="i-menu" viewBox="0 0 24 24" fill="none" stroke="currentColor" stroke-width="2"><path d="M4 7h16M4 12h16M4 17h16"/></symbol>
  <symbol id="i-eye" viewBox="0 0 24 24" fill="none" stroke="currentColor" stroke-width="1.6"><path d="M2 12s3.5-7 10-7 10 7 10 7-3.5 7-10 7S2 12 2 12Z"/><circle cx="12" cy="12" r="3"/></symbol>
  <symbol id="i-eye-off" viewBox="0 0 24 24" fill="none" stroke="currentColor" stroke-width="1.6"><path d="M3 3l18 18M10.6 5.1A9.8 9.8 0 0 1 12 5c6.5 0 10 7 10 7a17 17 0 0 1-3 3.9M6.6 6.6C3.7 8.4 2 12 2 12s3.5 7 10 7c1.5 0 2.9-.3 4.1-.9M9.9 9.9a3 3 0 0 0 4.2 4.2"/></symbol>
  <symbol id="i-pin" viewBox="0 0 24 24" fill="none" stroke="currentColor" stroke-width="1.6"><path d="M12 21s-7-5.5-7-11a7 7 0 0 1 14 0c0 5.5-7 11-7 11Z"/><circle cx="12" cy="10" r="2.6"/></symbol>
  <symbol id="i-mail" viewBox="0 0 24 24" fill="none" stroke="currentColor" stroke-width="1.6"><rect x="2.5" y="5" width="19" height="14" rx="2.5"/><path d="m3 7 9 6 9-6"/></symbol>
  <symbol id="i-phone" viewBox="0 0 24 24" fill="none" stroke="currentColor" stroke-width="1.6"><path d="M5 3h4l2 5-2.5 1.5a12 12 0 0 0 6 6L16 13l5 2v4a2 2 0 0 1-2 2A16 16 0 0 1 3 5a2 2 0 0 1 2-2Z"/></symbol>
  <symbol id="i-ai" viewBox="0 0 24 24" fill="none" stroke="currentColor" stroke-width="1.6"><rect x="5" y="5" width="14" height="14" rx="3"/><path d="M9 2v3M15 2v3M9 19v3M15 19v3M2 9h3M2 15h3M19 9h3M19 15h3"/><circle cx="12" cy="12" r="2.4"/></symbol>
</svg>